<?xml version="1.0" standalone="no"?>
<!DOCTYPE svg PUBLIC "-//W3C//DTD SVG 20010904//EN"
 "http://www.w3.org/TR/2001/REC-SVG-20010904/DTD/svg10.dtd">
<svg version="1.0" xmlns="http://www.w3.org/2000/svg"
 width="468.000000pt" height="468.000000pt" viewBox="0 0 468.000000 468.000000"
 preserveAspectRatio="xMidYMid meet">

<g transform="translate(0.000000,468.000000) scale(0.100000,-0.100000)"
fill="#000000" stroke="none">
<path d="M1316 4489 c-384 -44 -723 -278 -899 -619 -66 -126 -90 -199 -117
-344 -19 -105 -20 -152 -20 -1142 0 -643 4 -1051 10 -1084 5 -29 10 -73 11
-99 2 -68 35 -190 78 -291 101 -235 301 -450 523 -561 108 -54 225 -92 261
-85 17 3 35 2 42 -4 6 -5 45 -12 86 -15 41 -4 90 -9 109 -12 19 -3 441 -8 937
-10 986 -5 1012 -4 1180 52 179 60 312 145 443 281 127 132 186 228 247 404
71 201 68 140 68 1400 0 1070 -1 1140 -19 1220 -91 418 -379 742 -766 864
-173 55 -196 56 -1190 55 -503 -1 -946 -5 -984 -10z m1067 -281 c9 -7 27 -44
40 -83 l23 -70 104 -42 c57 -23 107 -49 112 -57 16 -29 -23 -52 -100 -59 -102
-8 -108 -13 -139 -118 -44 -142 -83 -144 -128 -7 -15 46 -35 91 -44 100 -10
11 -44 20 -94 27 -149 18 -144 55 13 112 99 35 102 38 134 136 22 66 47 85 79
61z m-529 -249 c22 -17 26 -28 24 -57 -6 -68 -78 -92 -128 -42 -27 27 -25 66
5 95 30 31 64 32 99 4z m1113 -1 c33 -30 31 -80 -3 -107 -35 -28 -69 -26 -99
4 -69 68 31 170 102 103z m-1587 -8 c24 -24 26 -77 3 -102 -22 -25 -84 -24
-108 2 -25 27 -22 80 6 102 28 24 74 23 99 -2z m2167 -2 c49 -46 16 -118 -54
-118 -70 0 -98 66 -48 115 30 31 71 32 102 3z m-233 -151 c12 -34 0 -58 -37
-71 -32 -12 -67 14 -67 50 0 58 86 75 104 21z m-2177 -65 c7 -4 19 -24 27 -43
18 -42 29 -53 78 -68 63 -20 59 -52 -9 -70 -40 -11 -83 -50 -83 -76 0 -18 -38
-48 -53 -42 -8 3 -24 25 -36 50 -21 43 -53 67 -90 67 -10 0 -24 7 -31 15 -16
20 -7 31 52 60 28 13 49 33 60 56 29 58 52 72 85 51z m2484 -58 c15 -34 30
-50 55 -60 45 -19 47 -52 4 -60 -33 -7 -45 -19 -69 -67 -23 -46 -50 -42 -79
10 -18 34 -31 45 -63 53 -33 9 -40 15 -37 32 2 15 13 24 35 30 18 5 40 20 48
33 8 14 22 36 30 50 25 40 53 32 76 -21z m-816 -54 c257 -68 486 -216 629
-407 229 -304 284 -686 150 -1041 -13 -35 -24 -66 -24 -68 0 -4 226 -75 305
-96 l50 -14 3 -112 3 -113 -28 7 c-80 18 -519 171 -655 228 -398 166 -789 379
-848 461 -29 41 -82 61 -134 51 -26 -5 -46 -19 -73 -52 -77 -92 -517 -326
-923 -491 -145 -59 -521 -187 -582 -198 l-38 -7 0 105 c0 72 4 108 12 114 7 6
64 25 127 43 410 115 1026 401 1250 580 113 89 142 102 243 108 77 4 92 2 143
-22 33 -15 84 -52 123 -90 37 -35 82 -71 101 -81 l34 -17 145 146 c80 80 149
146 153 146 3 0 40 -25 82 -55 l75 -55 77 46 c48 30 80 43 86 37 5 -5 17 -47
25 -94 21 -108 13 -225 -22 -345 -14 -49 -28 -96 -31 -105 -3 -12 7 -21 42
-33 26 -8 51 -13 56 -11 16 11 67 163 79 238 17 103 8 270 -20 367 -51 178
-154 335 -297 450 -166 134 -334 198 -565 215 l-88 7 0 82 c0 52 5 87 13 95
18 20 222 8 322 -19z m-1126 -350 c48 -24 87 -70 102 -119 l11 -39 62 5 c72 5
118 -15 154 -67 28 -41 28 -79 1 -114 l-20 -26 -405 0 c-391 0 -405 1 -424 20
-43 43 -11 136 60 173 27 14 51 17 102 14 l67 -4 16 47 c37 110 170 164 274
110z m-721 -56 c22 -15 30 -66 14 -90 -9 -13 -46 -34 -62 -34 -18 0 -60 48
-60 68 0 29 38 72 64 72 12 0 32 -7 44 -16z m1845 -16 c8 -13 20 -43 28 -67
14 -47 21 -52 142 -95 34 -13 47 -23 47 -37 0 -22 -25 -34 -93 -44 -63 -10
-74 -20 -101 -95 -22 -59 -26 -65 -52 -65 -26 0 -31 6 -54 62 -14 35 -32 69
-40 77 -8 7 -44 19 -79 25 -36 6 -68 16 -72 23 -13 20 17 44 84 69 78 28 91
39 106 92 22 74 58 97 84 55z m-1888 -448 c42 -46 10 -120 -52 -120 -42 0 -73
30 -73 70 0 62 84 95 125 50z m1570 -703 c318 -172 759 -365 1097 -479 71 -24
128 -46 128 -49 0 -8 -437 -115 -565 -138 -341 -61 -492 -74 -850 -75 -221 0
-339 5 -450 18 -374 43 -732 115 -940 189 l-40 14 90 28 c377 116 879 339
1235 548 l95 56 35 -21 c19 -11 94 -53 165 -91z m-1671 -747 c89 -13 144 -38
232 -105 100 -77 172 -108 264 -113 66 -3 87 0 180 32 128 44 187 52 276 37
88 -15 156 -46 237 -109 176 -135 389 -132 572 7 105 80 223 119 329 108 30
-3 105 -22 167 -42 99 -32 123 -36 185 -33 85 6 151 34 249 108 123 92 231
126 355 112 75 -8 77 -11 65 -118 l-6 -61 -70 -7 c-97 -9 -189 -47 -288 -118
-129 -94 -182 -113 -316 -113 -100 0 -118 3 -205 35 -74 27 -110 34 -165 34
-81 0 -99 -8 -216 -94 -82 -61 -131 -80 -249 -99 -196 -32 -380 8 -509 109
-69 55 -123 79 -188 86 -50 5 -75 1 -173 -31 -208 -68 -359 -58 -487 33 -29
20 -77 54 -107 76 -68 48 -149 76 -243 83 l-73 6 0 83 c0 91 -6 82 65 97 33 7
47 7 119 -3z m1219 -549 c54 -23 121 -46 149 -52 75 -17 181 -6 268 26 41 15
100 36 130 47 70 26 182 34 251 18 56 -13 154 -62 202 -102 l27 -23 -71 -53
-72 -53 -51 18 c-34 12 -80 18 -136 18 -80 -1 -91 -4 -185 -47 -203 -93 -338
-93 -538 -1 -126 58 -195 66 -295 34 l-69 -23 -67 53 c-36 29 -66 56 -66 59 0
9 76 63 120 85 65 34 122 45 215 41 80 -3 102 -8 188 -45z"/>
</g>
</svg>
